<svg width="9" height="14" viewBox="0 0 9 14" fill="none" xmlns="http://www.w3.org/2000/svg">
<path d="M3.82 13.604V12.436C2.46533 12.2227 1.21733 11.6093 0.076 10.596L1.564 8.788C2.396 9.51333 3.148 9.97733 3.82 10.18V7.796C2.7 7.508 1.87867 7.124 1.356 6.644C0.833333 6.15333 0.572 5.45467 0.572 4.548C0.572 3.63067 0.870667 2.87867 1.468 2.292C2.06533 1.69467 2.84933 1.33733 3.82 1.22V0.436H5.516V1.252C6.58267 1.40133 7.644 1.844 8.7 2.58L7.388 4.468C6.716 3.988 6.092 3.668 5.516 3.508V5.812C6.668 6.11067 7.516 6.51067 8.06 7.012C8.61467 7.51333 8.892 8.22267 8.892 9.14C8.892 10.0573 8.58267 10.8147 7.964 11.412C7.356 12.0093 6.54 12.3667 5.516 12.484V13.604H3.82ZM6.332 9.268C6.332 9.044 6.27333 8.85733 6.156 8.708C6.03867 8.55867 5.82533 8.42 5.516 8.292V10.26C6.06 10.0893 6.332 9.75867 6.332 9.268ZM3.82 3.444C3.36133 3.604 3.132 3.89733 3.132 4.324C3.132 4.75067 3.36133 5.076 3.82 5.3V3.444Z" fill="#23A6F0"/>
</svg>
